<?xml version="1.0" standalone="no"?><!DOCTYPE svg PUBLIC "-//W3C//DTD SVG 1.1//EN" "http://www.w3.org/Graphics/SVG/1.1/DTD/svg11.dtd"><svg t="1630992848520" class="icon" viewBox="0 0 1024 1024" version="1.1" xmlns="http://www.w3.org/2000/svg" p-id="1149" xmlns:xlink="http://www.w3.org/1999/xlink" width="12" height="12"><defs><style type="text/css"></style></defs><path d="M981.333333 657.066667l-25.6-102.4-179.2 51.2L622.933333 512l153.6-93.866667 179.2 51.2 25.6-102.4-68.266666-17.066666 76.8-51.2-59.733334-85.333334-76.8 42.666667 25.6-76.8-102.4-25.6-51.2 179.2-153.6 85.333333V221.866667l128-128-76.8-76.8-51.2 51.2V0H460.8v68.266667L409.6 17.066667l-76.8 76.8 128 128v196.266666l-170.666667-93.866666-42.666666-179.2-102.4 25.6 17.066666 76.8-59.733333-34.133334-59.733333 85.333334 68.266666 42.666666-76.8 17.066667 34.133334 102.4 170.666666-51.2 170.666667 102.4-170.666667 102.4-170.666666-51.2-34.133334 102.4 76.8 17.066667-68.266666 42.666666 59.733333 85.333334 59.733333-34.133334-17.066666 76.8 102.4 25.6 42.666666-179.2 170.666667-93.866666v179.2l-128 128 76.8 76.8 51.2-51.2v85.333333h110.933333v-85.333333l51.2 51.2 76.8-76.8-128-128V605.866667l153.6 85.333333 51.2 179.2 102.4-25.6L853.333333 768l76.8 42.666667 59.733334-85.333334-76.8-51.2z" fill="#ffffff" p-id="1150"></path></svg>